<svg width="15" height="23" viewBox="0 0 15 23" fill="none" xmlns="http://www.w3.org/2000/svg">
<path d="M5.25 0C5.05109 0 4.86032 0.0757252 4.71967 0.210517C4.57902 0.345309 4.5 0.528126 4.5 0.71875V4.3125H3C2.20435 4.3125 1.44129 4.6154 0.87868 5.15457C0.31607 5.69374 6.53707e-08 6.425 6.53707e-08 7.1875V18.6875C-0.000111766 19.201 0.143262 19.7051 0.415223 20.1475C0.687184 20.5898 1.07781 20.9544 1.5465 21.2031C1.49017 21.4156 1.48513 21.6375 1.53176 21.8521C1.57839 22.0667 1.67546 22.2683 1.8156 22.4415C1.95574 22.6148 2.13525 22.7551 2.34048 22.8519C2.54572 22.9487 2.77127 22.9993 3 23C3.39782 23 3.77936 22.8485 4.06066 22.579C4.34196 22.3094 4.5 21.9437 4.5 21.5625H10.5C10.5006 21.7662 10.5464 21.9675 10.6344 22.1529C10.7223 22.3384 10.8503 22.5038 11.01 22.6382C11.1697 22.7727 11.3574 22.8731 11.5607 22.9327C11.7639 22.9924 11.9781 23.01 12.1889 22.9843C12.3998 22.9586 12.6026 22.8903 12.7838 22.7839C12.965 22.6774 13.1206 22.5353 13.2402 22.3669C13.3597 22.1985 13.4406 22.0076 13.4774 21.807C13.5141 21.6063 13.506 21.4005 13.4535 21.2031C13.9222 20.9544 14.3128 20.5898 14.5848 20.1475C14.8567 19.7051 15.0001 19.201 15 18.6875V7.1875C15 6.425 14.6839 5.69374 14.1213 5.15457C13.5587 4.6154 12.7956 4.3125 12 4.3125H10.5V0.71875C10.5 0.528126 10.421 0.345309 10.2803 0.210517C10.1397 0.0757252 9.94891 0 9.75 0L5.25 0ZM9 4.3125H6V1.4375H9V4.3125ZM13.5 18.6875C13.5 19.0687 13.342 19.4344 13.0607 19.704C12.7794 19.9735 12.3978 20.125 12 20.125H3C2.60218 20.125 2.22064 19.9735 1.93934 19.704C1.65804 19.4344 1.5 19.0687 1.5 18.6875V10.0625H13.5V18.6875ZM3 5.75H12C12.3978 5.75 12.7794 5.90145 13.0607 6.17103C13.342 6.44062 13.5 6.80625 13.5 7.1875V8.625H1.5V7.1875C1.5 6.80625 1.65804 6.44062 1.93934 6.17103C2.22064 5.90145 2.60218 5.75 3 5.75Z" fill="#B84A32"/>
</svg>
