<svg width="20" height="20" viewBox="0 0 20 20" fill="none" xmlns="http://www.w3.org/2000/svg">
<path fill-rule="evenodd" clip-rule="evenodd" d="M16.5 12C14.567 12 13 13.458 13 15.257C13 17.042 14.117 19.125 15.86 19.87C16.266 20.043 16.734 20.043 17.14 19.87C18.883 19.125 20 17.042 20 15.257C20 13.458 18.433 12 16.5 12ZM16.5 16.5C17.0523 16.5 17.5 16.0523 17.5 15.5C17.5 14.9477 17.0523 14.5 16.5 14.5C15.9477 14.5 15.5 14.9477 15.5 15.5C15.5 16.0523 15.9477 16.5 16.5 16.5ZM3.5 0C1.567 0 0 1.458 0 3.257C0 5.042 1.117 7.125 2.86 7.87C3.266 8.043 3.734 8.043 4.14 7.87C5.883 7.125 7 5.042 7 3.257C7 1.458 5.433 0 3.5 0ZM3.5 4.5C4.05228 4.5 4.5 4.05228 4.5 3.5C4.5 2.94772 4.05228 2.5 3.5 2.5C2.94772 2.5 2.5 2.94772 2.5 3.5C2.5 4.05228 2.94772 4.5 3.5 4.5ZM9.25 3C9.25 2.58579 9.58579 2.25 10 2.25H14.132C16.883 2.25 17.929 5.843 15.608 7.32L5.198 13.945C4.142 14.617 4.618 16.25 5.868 16.25H8.189L7.969 16.03C7.77412 15.8416 7.69606 15.5627 7.76482 15.3005C7.83359 15.0383 8.03846 14.8336 8.30072 14.7651C8.56297 14.6966 8.84179 14.7749 9.03 14.97L10.53 16.47C10.8225 16.7628 10.8225 17.2372 10.53 17.53L9.03 19.03C8.84303 19.2307 8.56145 19.3132 8.29571 19.2454C8.02998 19.1775 7.82248 18.97 7.75461 18.7043C7.68675 18.4386 7.76935 18.157 7.97 17.97L8.19 17.75H5.867C3.116 17.75 2.07 14.157 4.391 12.68L14.802 6.055C15.857 5.383 15.382 3.75 14.131 3.75H10C9.58579 3.75 9.25 3.41421 9.25 3Z" fill="#B84A32"/>
</svg>
