<svg width="17" height="23" viewBox="0 0 17 23" fill="none" xmlns="http://www.w3.org/2000/svg">
<path fill-rule="evenodd" clip-rule="evenodd" d="M10.7451 2.75514C10.7451 4.27676 9.51159 5.51028 7.98997 5.51028C6.46835 5.51028 5.23483 4.27676 5.23483 2.75514C5.23483 1.23352 6.46835 0 7.98997 0C9.51159 0 10.7451 1.23352 10.7451 2.75514Z" fill="#0D7A7B"/>
<path fill-rule="evenodd" clip-rule="evenodd" d="M16.1736 5.78467C16.6301 5.78467 17.0001 6.15472 17.0001 6.61121V22.0399C17.0001 22.4964 16.6301 22.8664 16.1736 22.8664C15.7171 22.8664 15.347 22.4964 15.347 22.0399V11.1307C14.8125 11.577 14.3883 11.9242 13.9067 12.0994C13.2355 12.3444 12.4994 12.3444 11.8282 12.0994C11.329 11.9176 10.8915 11.5517 10.3294 11.0822L10.2269 10.9974L10.1377 10.9224C9.97189 10.778 9.79902 10.6419 9.61969 10.5147C9.20792 10.2441 8.76357 10.0268 8.29723 9.86776C8.15627 9.83119 8.01443 9.79812 7.87184 9.76858C7.8383 9.76187 7.80447 9.75672 7.77045 9.75315L7.74951 9.76197C7.66766 9.79674 7.59544 9.85081 7.53902 9.91956C7.53316 9.9368 7.52874 9.95449 7.52579 9.97246C7.51477 10.0309 7.50706 10.1091 7.49163 10.27L7.3131 12.0586C7.20951 13.088 7.19738 13.3635 7.26902 13.5938C7.31236 13.729 7.37445 13.8546 7.45526 13.9707C7.59302 14.1691 7.81894 14.3278 8.69617 14.8766L8.81189 14.9493C9.68912 15.4959 10.2963 15.875 10.735 16.4206C10.9554 16.6961 11.1383 16.9944 11.2838 17.3154C11.5714 17.9535 11.6342 18.6665 11.7257 19.6958L11.7378 19.8336L11.9274 21.9661C11.9673 22.4202 11.6319 22.8209 11.1778 22.8616C10.7238 22.9023 10.3225 22.5677 10.2809 22.1137L10.0914 19.9802C9.98337 18.7602 9.93488 18.3458 9.77728 17.9943C9.68984 17.8023 9.57877 17.622 9.44667 17.4576C9.20532 17.1567 8.85817 16.9275 7.82004 16.2784L7.69661 16.2012C7.00232 15.7681 6.4557 15.4276 6.09864 14.9174C5.9221 14.6624 5.78501 14.3823 5.69198 14.0864C5.50574 13.4924 5.57076 12.8521 5.65341 12.0377L5.66774 11.8944L5.84627 10.1069L5.85178 10.054C5.87603 9.80054 5.90358 9.51952 6.03913 9.22527C6.18791 8.89796 6.45019 8.64118 6.69375 8.46926C6.9373 8.29734 7.26681 8.13644 7.62608 8.10559C7.82886 8.08795 8.01841 8.1144 8.18262 8.14526C8.34131 8.17612 8.53086 8.2224 8.74136 8.2753L8.77001 8.28191L8.78985 8.28742L8.82181 8.29624C8.83062 8.29955 8.86809 8.31167 8.91217 8.33151L8.93421 8.34142L8.99373 8.36236C9.54654 8.56427 10.0736 8.8306 10.5641 9.15584C10.7901 9.31453 10.941 9.44017 11.1824 9.64074L11.1956 9.65176L11.286 9.7278C12.0001 10.3229 12.2029 10.4772 12.3947 10.5466C12.6999 10.6568 13.0338 10.6568 13.3402 10.5466C13.532 10.4761 13.7347 10.3229 14.45 9.7278L15.347 8.97841V6.61121C15.347 6.15472 15.7171 5.78467 16.1736 5.78467ZM8.86699 9.85895L8.8725 9.85564L8.86699 9.85895ZM8.27078 8.31608H8.27298L8.2807 8.31277L8.27078 8.31608Z" fill="#0D7A7B"/>
<path fill-rule="evenodd" clip-rule="evenodd" d="M4.93198 8.51294C5.00158 8.72166 4.98536 8.94949 4.88688 9.14624C4.7884 9.34299 4.61574 9.49252 4.40695 9.5619L2.55884 10.1776C2.02036 10.3564 1.65722 10.8603 1.65799 11.4277C1.65799 11.5205 1.70994 11.6045 1.79284 11.6465L4.51527 13.0072C4.78265 13.1381 4.95931 13.4023 4.9781 13.6995C4.99688 13.9966 4.85491 14.2809 4.60614 14.4445C4.35737 14.608 4.04001 14.6256 3.7747 14.4906L1.05006 13.1288C0.40611 12.8064 -0.000411009 12.1478 0 11.4277C0 10.1466 0.820154 9.01034 2.03381 8.60468L3.88302 7.98901C4.0916 7.91936 4.3193 7.93543 4.51603 8.03369C4.71275 8.13195 4.86238 8.30435 4.93198 8.51294Z" fill="#0D7A7B"/>
<path fill-rule="evenodd" clip-rule="evenodd" d="M5.71013 16.3751C6.09103 16.6291 6.19396 17.1438 5.94004 17.5247L2.62405 22.4987C2.4613 22.7487 2.17674 22.892 1.87895 22.8739C1.58115 22.8558 1.31606 22.6791 1.18481 22.4111C1.05355 22.1432 1.07639 21.8254 1.2446 21.579L4.56059 16.6051C4.81455 16.2242 5.3292 16.1212 5.71013 16.3751Z" fill="#0D7A7B"/>
</svg>
