<svg width="1244" height="309" viewBox="0 0 1244 309" fill="none" xmlns="http://www.w3.org/2000/svg">
<path d="M414.38 241.5V107.01H365.7V83.01H489.32V107.01H440.64V241.5H414.38Z" fill="#0D7B7C"/>
<path d="M497.03 241.5V128.29H522.39V148.89C526.92 141.8 532.81 136.51 540.05 133.04C547.3 129.57 554.77 127.83 562.47 127.83V152.06C555.53 152.06 549 153 542.88 154.89C536.77 156.78 531.82 159.84 528.05 164.06C524.28 168.29 522.39 173.87 522.39 180.81V241.49H497.03V241.5Z" fill="#0D7B7C"/>
<path d="M593.48 106.78C589.4 106.78 585.89 105.31 582.95 102.36C580.01 99.42 578.53 95.91 578.53 91.83C578.53 87.75 580 84.28 582.95 81.41C585.89 78.54 589.4 77.11 593.48 77.11C597.56 77.11 601.07 78.55 604.01 81.41C606.95 84.28 608.43 87.75 608.43 91.83C608.43 95.91 606.96 99.42 604.01 102.36C601.07 105.3 597.56 106.78 593.48 106.78ZM580.8 241.5V128.29H605.93V241.5H580.8Z" fill="#0D7B7C"/>
<path d="M636.95 286.78V128.29H660.72L661.85 145.5C665.77 139.16 670.79 134.26 676.91 130.78C683.02 127.31 690.08 125.57 698.08 125.57C708.34 125.57 717.29 128.03 724.91 132.93C732.53 137.84 738.49 144.7 742.8 153.53C747.1 162.36 749.25 172.81 749.25 184.89C749.25 196.97 747.1 207.23 742.8 216.14C738.5 225.05 732.53 231.95 724.91 236.86C717.29 241.76 708.34 244.22 698.08 244.22C690.23 244.22 683.28 242.48 677.25 239.01C671.21 235.54 666.23 230.78 662.31 224.75V286.79H636.95V286.78ZM691.74 221.12C697.78 221.12 703.14 219.57 707.82 216.48C712.5 213.39 716.23 209.12 719.03 203.69C721.82 198.26 723.22 191.99 723.22 184.9C723.22 177.81 721.9 171.54 719.26 166.11C716.62 160.68 712.96 156.45 708.28 153.43C703.6 150.41 698.16 148.9 691.98 148.9C686.24 148.9 681.11 150.45 676.58 153.54C672.05 156.63 668.54 160.9 666.05 166.33C663.56 171.76 662.31 177.95 662.31 184.9C662.31 191.85 663.55 198.26 666.05 203.69C668.55 209.12 672.01 213.39 676.47 216.48C680.92 219.58 686.02 221.12 691.75 221.12H691.74Z" fill="#0D7B7C"/>
<path d="M775.74 241.5V83.01H801.55V149.8L864.72 83.01H898.46L830.99 154.33L901.18 241.5H868.8L813.78 172.67L801.55 185.8V241.5H775.74Z" fill="#0D7B7C"/>
<path d="M915.67 241.5V128.29H939.44L940.57 144.37C944.19 138.34 948.91 133.69 954.72 130.45C960.53 127.21 967.21 125.58 974.76 125.58C983.82 125.58 991.55 127.39 997.97 131.01C1004.38 134.63 1009.29 140.26 1012.69 147.88C1016.09 155.5 1017.78 165.43 1017.78 177.65V241.5H992.42V183.54C992.42 174.48 991.4 167.5 989.36 162.6C987.32 157.7 984.45 154.26 980.76 152.3C977.06 150.34 972.72 149.36 967.74 149.36C959.28 149.21 952.72 152 948.04 157.74C943.36 163.48 941.02 171.7 941.02 182.42V241.51H915.66L915.67 241.5Z" fill="#0D7B7C"/>
<path d="M1095.44 244.22C1083.97 244.22 1073.85 241.69 1065.1 236.63C1056.34 231.58 1049.48 224.59 1044.5 215.69C1039.52 206.79 1037.03 196.52 1037.03 184.9C1037.03 173.28 1039.48 163.02 1044.39 154.11C1049.29 145.21 1056.12 138.23 1064.88 133.17C1073.63 128.11 1083.59 125.58 1094.77 125.58C1105.95 125.58 1116.35 128.11 1125.11 133.17C1133.86 138.23 1140.69 145.21 1145.6 154.11C1150.5 163.02 1152.96 173.28 1152.96 184.9C1152.96 196.52 1150.5 206.79 1145.6 215.69C1140.69 224.6 1133.9 231.58 1125.22 236.63C1116.54 241.69 1106.62 244.22 1095.45 244.22H1095.44ZM1095.44 220.9C1101.78 220.9 1107.33 219.35 1112.08 216.26C1116.83 213.17 1120.57 208.94 1123.29 203.58C1126.01 198.22 1127.36 192 1127.36 184.9C1127.36 177.8 1126 171.58 1123.29 166.22C1120.57 160.86 1116.76 156.64 1111.86 153.54C1106.95 150.45 1101.33 148.9 1094.99 148.9C1088.65 148.9 1083.06 150.45 1078.23 153.54C1073.4 156.63 1069.63 160.86 1066.91 166.22C1064.19 171.58 1062.83 177.81 1062.83 184.9C1062.83 191.99 1064.22 198.22 1067.02 203.58C1069.81 208.94 1073.66 213.17 1078.57 216.26C1083.47 219.36 1089.1 220.9 1095.44 220.9Z" fill="#0D7B7C"/>
<path d="M1219.97 244.22C1208.04 244.22 1198.95 241.24 1192.69 235.28C1186.43 229.32 1183.29 220.75 1183.29 209.58V150.03H1164.5V128.29H1183.29V92.97H1208.42V128.29H1238.99V150.03H1208.42V204.82C1208.42 210.11 1209.66 214.1 1212.16 216.82C1214.65 219.54 1218.31 220.9 1223.14 220.9C1224.65 220.9 1226.31 220.6 1228.12 219.99C1229.93 219.39 1231.97 218.26 1234.23 216.59L1243.51 235.84C1239.58 238.56 1235.66 240.63 1231.74 242.07C1227.81 243.5 1223.89 244.22 1219.97 244.22Z" fill="#0D7B7C"/>
<path d="M148.79 158.57C143.91 159.79 137.08 162.56 131.38 168.99C125.98 175.07 123.97 181.76 123.24 186.55C121.68 196.78 107.43 198.8 103.57 189.19C103.47 188.94 103.38 188.69 103.29 188.42L88.49 142.87C85.71 134.33 93.29 126.02 102.04 128L148.77 138.54C149.04 138.6 149.31 138.67 149.57 138.74C159.47 141.7 158.82 156.08 148.79 158.57Z" fill="url(#paint0_linear_194_411)"/>
<path d="M154.15 0C69.02 0 0 69.02 0 154.15C0 239.28 69.02 308.31 154.15 308.31C239.28 308.31 308.31 239.29 308.31 154.15C308.31 69.01 239.29 0 154.15 0ZM161.91 186.69C126.55 218.1 156.13 278.33 129.39 292.38C103.73 305.86 46.66 266.09 22.45 215.46C1.36 171.35 1.86 112.02 34.96 66.62C79.56 5.45 165.56 -5.99 221.32 22.85C228.98 26.81 277.54 52.98 285.73 103.52C287.63 115.21 291.37 138.34 278.23 155.53C252.62 189 196.52 155.94 161.91 186.69Z" fill="url(#paint1_linear_194_411)"/>
<path d="M148.79 158.57C143.91 159.79 137.08 162.56 131.38 168.99C125.98 175.07 123.97 181.76 123.24 186.55C121.68 196.78 107.43 198.8 103.57 189.19C103.47 188.94 103.38 188.69 103.29 188.42L88.49 142.87C85.71 134.33 93.29 126.02 102.04 128L148.77 138.54C149.04 138.6 149.31 138.67 149.57 138.74C159.47 141.7 158.82 156.08 148.79 158.57Z" fill="white"/>
<path d="M148.79 158.57C143.91 159.79 137.08 162.56 131.38 168.99C125.98 175.07 123.97 181.76 123.24 186.55C121.68 196.78 107.43 198.8 103.57 189.19C103.47 188.94 103.38 188.69 103.29 188.42L88.49 142.87C85.71 134.33 93.29 126.02 102.04 128L148.77 138.54C149.04 138.6 149.31 138.67 149.57 138.74C159.47 141.7 158.82 156.08 148.79 158.57Z" fill="#45C1C4"/>
<defs>
<linearGradient id="paint0_linear_194_411" x1="85.08" y1="141.09" x2="143.19" y2="174.64" gradientUnits="userSpaceOnUse">
<stop stop-color="#F8A391"/>
<stop offset="0.96" stop-color="#48BFC0"/>
<stop offset="1" stop-color="#41C1C3"/>
</linearGradient>
<linearGradient id="paint1_linear_194_411" x1="20.63" y1="77.06" x2="287.68" y2="231.24" gradientUnits="userSpaceOnUse">
<stop stop-color="#F8A391"/>
<stop offset="0.96" stop-color="#48BFC0"/>
<stop offset="1" stop-color="#41C1C3"/>
</linearGradient>
</defs>
</svg>
