<svg width="1147" height="283" viewBox="0 0 1147 283" fill="none" xmlns="http://www.w3.org/2000/svg">
<path d="M388.2 193.47V70.44H343.67V48.48H456.76V70.44H412.23V193.47H388.2Z" fill="#0D7B7C"/>
<path d="M463.8 193.47V89.91H487V108.76C491.14 102.27 496.53 97.44 503.16 94.26C509.79 91.09 516.62 89.5 523.66 89.5V111.66C517.31 111.66 511.34 112.52 505.74 114.25C500.15 115.98 495.62 118.77 492.17 122.64C488.72 126.51 486.99 131.62 486.99 137.97V193.48H463.79L463.8 193.47Z" fill="#0D7B7C"/>
<path d="M552.03 70.2401C548.3 70.2401 545.09 68.8901 542.4 66.2001C539.71 63.5101 538.36 60.3001 538.36 56.5701C538.36 52.8401 539.71 49.6701 542.4 47.0401C545.09 44.4201 548.3 43.1001 552.03 43.1001C555.76 43.1001 558.97 44.4101 561.66 47.0401C564.35 49.6601 565.7 52.8401 565.7 56.5701C565.7 60.3001 564.35 63.5101 561.66 66.2001C558.97 68.8901 555.76 70.2401 552.03 70.2401ZM540.43 193.47V89.9101H563.42V193.47H540.43Z" fill="#0D7B7C"/>
<path d="M591.8 234.9V89.9202H613.55L614.59 105.66C618.18 99.8602 622.77 95.3702 628.36 92.2002C633.95 89.0302 640.41 87.4402 647.73 87.4402C657.12 87.4402 665.3 89.6902 672.27 94.1702C679.24 98.6602 684.7 104.94 688.63 113.02C692.57 121.1 694.53 130.66 694.53 141.71C694.53 152.76 692.56 162.15 688.63 170.29C684.69 178.44 679.24 184.76 672.27 189.24C665.3 193.73 657.11 195.97 647.73 195.97C640.55 195.97 634.2 194.38 628.68 191.21C623.16 188.04 618.6 183.69 615.01 178.16V234.91H591.81L591.8 234.9ZM641.92 174.83C647.44 174.83 652.34 173.42 656.63 170.58C660.91 167.75 664.33 163.85 666.88 158.88C669.43 153.91 670.71 148.18 670.71 141.69C670.71 135.2 669.5 129.47 667.09 124.5C664.67 119.53 661.32 115.67 657.05 112.9C652.77 110.14 647.8 108.76 642.14 108.76C636.89 108.76 632.2 110.18 628.06 113.01C623.92 115.84 620.71 119.74 618.43 124.71C616.15 129.68 615.01 135.34 615.01 141.69C615.01 148.04 616.15 153.91 618.43 158.88C620.71 163.85 623.88 167.75 627.96 170.58C632.03 173.41 636.69 174.83 641.94 174.83H641.92Z" fill="#0D7B7C"/>
<path d="M718.76 193.47V48.49H742.37V109.59L800.16 48.49H831.02L769.3 113.73L833.51 193.47H803.89L753.56 130.51L742.38 142.52V193.47H718.77H718.76Z" fill="#0D7B7C"/>
<path d="M846.76 193.47V89.9102H868.51L869.55 104.62C872.86 99.1002 877.18 94.8502 882.5 91.8802C887.81 88.9102 893.92 87.4302 900.83 87.4302C909.12 87.4302 916.19 89.0902 922.06 92.4002C927.93 95.7102 932.42 100.86 935.52 107.83C938.63 114.8 940.18 123.88 940.18 135.07V193.48H916.98V140.46C916.98 132.18 916.05 125.79 914.18 121.3C912.32 116.81 909.69 113.67 906.31 111.88C902.92 110.09 898.96 109.19 894.4 109.19C886.67 109.05 880.66 111.61 876.38 116.85C872.1 122.1 869.96 129.62 869.96 139.43V193.49H846.76V193.47Z" fill="#0D7B7C"/>
<path d="M1011.21 195.96C1000.71 195.96 991.46 193.65 983.46 189.02C975.45 184.4 969.17 178.01 964.61 169.86C960.05 161.71 957.78 152.33 957.78 141.69C957.78 131.05 960.02 121.67 964.51 113.52C969 105.37 975.24 98.9902 983.25 94.3602C991.26 89.7402 1000.37 87.4202 1010.59 87.4202C1020.81 87.4202 1030.33 89.7302 1038.34 94.3602C1046.35 98.9902 1052.6 105.37 1057.08 113.52C1061.57 121.67 1063.81 131.06 1063.81 141.69C1063.81 152.32 1061.56 161.71 1057.08 169.86C1052.59 178.01 1046.38 184.39 1038.44 189.02C1030.5 193.64 1021.42 195.96 1011.2 195.96H1011.21ZM1011.21 174.62C1017.01 174.62 1022.08 173.21 1026.43 170.37C1030.78 167.54 1034.2 163.67 1036.68 158.77C1039.17 153.87 1040.41 148.18 1040.41 141.68C1040.41 135.18 1039.17 129.5 1036.68 124.59C1034.19 119.69 1030.71 115.82 1026.22 112.99C1021.73 110.16 1016.59 108.74 1010.79 108.74C1004.99 108.74 999.88 110.16 995.46 112.99C991.04 115.82 987.59 119.69 985.1 124.59C982.61 129.49 981.37 135.19 981.37 141.68C981.37 148.17 982.65 153.87 985.2 158.77C987.75 163.67 991.27 167.54 995.76 170.37C1000.25 173.2 1005.39 174.62 1011.19 174.62H1011.21Z" fill="#0D7B7C"/>
<path d="M1125.12 195.96C1114.21 195.96 1105.89 193.24 1100.16 187.78C1094.43 182.33 1091.57 174.49 1091.57 164.27V109.8H1074.38V89.9201H1091.57V57.6101H1114.56V89.9201H1142.52V109.8H1114.56V159.92C1114.56 164.75 1115.7 168.41 1117.98 170.9C1120.26 173.39 1123.6 174.63 1128.02 174.63C1129.4 174.63 1130.92 174.35 1132.58 173.8C1134.24 173.25 1136.1 172.21 1138.17 170.69L1146.66 188.3C1143.07 190.79 1139.48 192.68 1135.89 194C1132.3 195.31 1128.71 195.97 1125.12 195.97V195.96Z" fill="#0D7B7C"/>
<path d="M660.27 257.71V229.71H668.91C671.58 229.71 673.94 230.3 676.01 231.49C678.08 232.68 679.7 234.32 680.87 236.43C682.04 238.54 682.63 240.96 682.63 243.71C682.63 246.46 682.04 248.84 680.87 250.95C679.7 253.06 678.08 254.71 676.01 255.91C673.94 257.11 671.58 257.71 668.91 257.71H660.27ZM664.19 254.03H668.91C670.27 254.03 671.54 253.77 672.71 253.25C673.88 252.73 674.92 252 675.81 251.05C676.7 250.1 677.4 249 677.89 247.75C678.38 246.5 678.63 245.15 678.63 243.71C678.63 242.27 678.38 240.92 677.89 239.67C677.4 238.42 676.7 237.32 675.81 236.37C674.92 235.42 673.88 234.69 672.71 234.17C671.54 233.65 670.27 233.39 668.91 233.39H664.19V254.03Z" fill="#0D7B7C"/>
<path d="M696.03 258.19C694.03 258.19 692.27 257.74 690.75 256.85C689.23 255.96 688.04 254.72 687.17 253.15C686.3 251.58 685.87 249.76 685.87 247.71C685.87 245.66 686.3 243.84 687.15 242.27C688 240.7 689.19 239.46 690.71 238.57C692.23 237.68 693.96 237.23 695.91 237.23C697.86 237.23 699.67 237.68 701.19 238.57C702.71 239.46 703.9 240.7 704.75 242.27C705.6 243.84 706.03 245.66 706.03 247.71C706.03 249.76 705.6 251.58 704.75 253.15C703.9 254.72 702.72 255.96 701.21 256.85C699.7 257.74 697.98 258.19 696.03 258.19ZM696.03 254.71C697.23 254.71 698.29 254.41 699.21 253.81C700.13 253.21 700.86 252.39 701.39 251.35C701.92 250.31 702.19 249.1 702.19 247.71C702.19 246.32 701.92 245.11 701.39 244.07C700.86 243.03 700.12 242.21 699.17 241.61C698.22 241.01 697.15 240.71 695.95 240.71C694.75 240.71 693.64 241.01 692.71 241.61C691.78 242.21 691.04 243.04 690.51 244.09C689.98 245.14 689.71 246.35 689.71 247.71C689.71 249.07 689.98 250.31 690.51 251.35C691.04 252.39 691.79 253.21 692.75 253.81C693.71 254.41 694.8 254.71 696.03 254.71Z" fill="#0D7B7C"/>
<path d="M710.19 257.71V237.71H713.75L713.91 240.63C714.58 239.54 715.44 238.7 716.49 238.11C717.54 237.52 718.75 237.23 720.11 237.23C721.68 237.23 723.05 237.55 724.21 238.19C725.37 238.83 726.26 239.82 726.89 241.17C727.52 242.52 727.83 244.28 727.83 246.47V257.71H724.03V247.47C724.03 245.66 723.82 244.28 723.41 243.33C723 242.38 722.42 241.72 721.69 241.35C720.96 240.98 720.11 240.78 719.15 240.75C717.52 240.75 716.26 241.32 715.35 242.47C714.44 243.62 713.99 245.23 713.99 247.31V257.71H710.19Z" fill="#0D7B7C"/>
<path d="M732.75 238.67L732.39 229.07H736.07L735.71 238.67H732.75Z" fill="#0D7B7C"/>
<path d="M748.83 258.19C746.83 258.19 745.28 257.68 744.19 256.65C743.1 255.62 742.55 254.15 742.55 252.23V240.99H739.15V237.71H742.55V231.47H746.35V237.71H752.03V240.99H746.35V251.67C746.35 252.66 746.6 253.41 747.09 253.93C747.58 254.45 748.3 254.71 749.23 254.71C749.5 254.71 749.79 254.66 750.11 254.55C750.43 254.44 750.82 254.23 751.27 253.91L752.71 256.87C752.02 257.32 751.36 257.66 750.73 257.87C750.1 258.08 749.47 258.19 748.83 258.19Z" fill="#0D7B7C"/>
<path d="M771.86 258.19C770.77 258.19 769.79 258.03 768.92 257.71C768.05 257.39 767.29 256.97 766.62 256.45C765.95 255.93 765.39 255.34 764.94 254.69C764.49 254.04 764.13 253.38 763.86 252.71L767.02 251.11C767.53 252.15 768.17 252.99 768.96 253.63C769.75 254.27 770.71 254.59 771.86 254.59C772.79 254.59 773.69 254.38 774.54 253.95C775.39 253.52 776.1 252.81 776.66 251.81C777.22 250.81 777.5 249.5 777.5 247.87V229.71H781.42V249.27C781.42 250.74 781.16 252.02 780.64 253.13C780.12 254.24 779.41 255.17 778.52 255.93C777.63 256.69 776.61 257.26 775.46 257.63C774.31 258 773.11 258.19 771.86 258.19Z" fill="#0D7B7C"/>
<path d="M794.42 258.19C792.87 258.19 791.53 257.87 790.38 257.23C789.23 256.59 788.34 255.59 787.7 254.23C787.06 252.87 786.74 251.11 786.74 248.95V237.71H790.54V247.95C790.54 249.74 790.75 251.11 791.16 252.07C791.57 253.03 792.15 253.7 792.9 254.07C793.65 254.44 794.49 254.64 795.42 254.67C797.05 254.67 798.31 254.1 799.22 252.95C800.13 251.8 800.58 250.19 800.58 248.11V237.71H804.34V257.71H800.82L800.66 254.79C799.99 255.88 799.13 256.72 798.08 257.31C797.03 257.9 795.81 258.19 794.42 258.19Z" fill="#0D7B7C"/>
<path d="M816.82 258.19C815.41 258.19 814.15 257.98 813.04 257.55C811.93 257.12 811 256.55 810.24 255.83C809.48 255.11 808.91 254.3 808.54 253.39L811.82 251.95C812.25 252.78 812.89 253.46 813.74 253.99C814.59 254.52 815.54 254.79 816.58 254.79C817.73 254.79 818.67 254.58 819.42 254.15C820.17 253.72 820.54 253.12 820.54 252.35C820.54 251.58 820.26 251.02 819.7 250.59C819.14 250.16 818.33 249.82 817.26 249.55L815.38 249.07C813.51 248.56 812.07 247.8 811.04 246.79C810.01 245.78 809.5 244.63 809.5 243.35C809.5 241.4 810.13 239.9 811.38 238.83C812.63 237.76 814.49 237.23 816.94 237.23C818.14 237.23 819.24 237.4 820.24 237.75C821.24 238.1 822.09 238.59 822.8 239.23C823.51 239.87 824.01 240.63 824.3 241.51L821.1 242.95C820.78 242.15 820.23 241.56 819.46 241.17C818.69 240.78 817.78 240.59 816.74 240.59C815.7 240.59 814.83 240.82 814.22 241.29C813.61 241.76 813.3 242.4 813.3 243.23C813.3 243.68 813.56 244.12 814.08 244.53C814.6 244.94 815.37 245.28 816.38 245.55L818.54 246.07C819.85 246.39 820.93 246.88 821.78 247.53C822.63 248.18 823.27 248.92 823.7 249.73C824.13 250.54 824.34 251.39 824.34 252.27C824.34 253.47 824.01 254.52 823.36 255.41C822.71 256.3 821.81 256.99 820.68 257.47C819.55 257.95 818.26 258.19 816.82 258.19Z" fill="#0D7B7C"/>
<path d="M836.02 258.19C834.02 258.19 832.47 257.68 831.38 256.65C830.29 255.62 829.74 254.15 829.74 252.23V240.99H826.34V237.71H829.74V231.47H833.54V237.71H839.22V240.99H833.54V251.67C833.54 252.66 833.79 253.41 834.28 253.93C834.77 254.45 835.49 254.71 836.42 254.71C836.69 254.71 836.98 254.66 837.3 254.55C837.62 254.44 838.01 254.23 838.46 253.91L839.9 256.87C839.21 257.32 838.55 257.66 837.92 257.87C837.29 258.08 836.66 258.19 836.02 258.19Z" fill="#0D7B7C"/>
<path d="M860.02 257.71V233.31H851.26V229.71H872.74V233.31H863.98V257.71H860.02Z" fill="#0D7B7C"/>
<path d="M874.1 257.71V237.71H877.9V241.31C878.7 240.06 879.73 239.13 881 238.53C882.27 237.93 883.59 237.63 884.98 237.63V241.23C883.78 241.23 882.64 241.41 881.56 241.77C880.48 242.13 879.6 242.72 878.92 243.53C878.24 244.34 877.9 245.44 877.9 246.83V257.71H874.1Z" fill="#0D7B7C"/>
<path d="M894.46 258.19C892.09 258.19 890.24 257.65 888.92 256.57C887.6 255.49 886.94 253.99 886.94 252.07C886.94 250.02 887.63 248.45 889 247.37C890.37 246.29 892.29 245.75 894.74 245.75H900.1C899.94 244.04 899.49 242.76 898.76 241.89C898.03 241.02 896.93 240.59 895.46 240.59C894.42 240.59 893.52 240.8 892.76 241.23C892 241.66 891.37 242.32 890.86 243.23L887.5 241.95C887.98 241.04 888.58 240.24 889.3 239.53C890.02 238.82 890.89 238.26 891.9 237.85C892.91 237.44 894.1 237.23 895.46 237.23C897.35 237.23 898.93 237.6 900.18 238.35C901.43 239.1 902.37 240.18 903 241.59C903.63 243 903.93 244.75 903.9 246.83L903.86 257.71H900.34L900.22 255.15C899.63 256.11 898.86 256.86 897.9 257.39C896.94 257.92 895.79 258.19 894.46 258.19ZM894.78 254.95C895.87 254.95 896.82 254.72 897.62 254.25C898.42 253.78 899.05 253.13 899.5 252.29C899.95 251.45 900.18 250.48 900.18 249.39V248.75H895.78C893.94 248.75 892.65 249.04 891.9 249.61C891.15 250.18 890.78 250.98 890.78 251.99C890.78 252.92 891.13 253.65 891.84 254.17C892.55 254.69 893.53 254.95 894.78 254.95Z" fill="#0D7B7C"/>
<path d="M914.38 257.71L906.06 237.71H909.94L916.3 253.35L922.62 237.71H926.58L918.22 257.71H914.38Z" fill="#0D7B7C"/>
<path d="M937.86 258.19C935.91 258.19 934.19 257.74 932.7 256.85C931.21 255.96 930.03 254.72 929.18 253.15C928.33 251.58 927.9 249.76 927.9 247.71C927.9 245.66 928.33 243.84 929.18 242.27C930.03 240.7 931.21 239.46 932.72 238.57C934.23 237.68 935.95 237.23 937.9 237.23C939.74 237.23 941.35 237.69 942.74 238.61C944.13 239.53 945.21 240.84 946 242.53C946.79 244.22 947.18 246.22 947.18 248.51H931.78C931.91 250.48 932.57 252.02 933.76 253.13C934.95 254.24 936.41 254.79 938.14 254.79C939.47 254.79 940.59 254.48 941.48 253.85C942.37 253.22 943.07 252.43 943.58 251.47L946.86 252.99C946.33 254.03 945.63 254.94 944.78 255.73C943.93 256.52 942.92 257.12 941.76 257.55C940.6 257.98 939.3 258.19 937.86 258.19ZM932.02 245.51H943.1C943.02 244.44 942.73 243.54 942.24 242.81C941.75 242.08 941.12 241.51 940.36 241.11C939.6 240.71 938.75 240.51 937.82 240.51C936.89 240.51 936.03 240.7 935.18 241.09C934.33 241.48 933.61 242.04 933.04 242.79C932.47 243.54 932.13 244.44 932.02 245.51Z" fill="#0D7B7C"/>
<path d="M950.94 257.71V229.71H954.74V257.71H950.94Z" fill="#0D7B7C"/>
<path d="M961.74 258.27C961.07 258.27 960.49 258.03 960 257.55C959.51 257.07 959.26 256.48 959.26 255.79C959.26 255.1 959.51 254.51 960 254.03C960.49 253.55 961.07 253.31 961.74 253.31C962.41 253.31 963.03 253.55 963.52 254.03C964.01 254.51 964.26 255.1 964.26 255.79C964.26 256.48 964.01 257.07 963.52 257.55C963.03 258.03 962.43 258.27 961.74 258.27Z" fill="#0D7B7C"/>
<path d="M991.38 258.19C988.71 258.19 986.34 257.57 984.26 256.33C982.18 255.09 980.55 253.38 979.38 251.21C978.21 249.04 977.62 246.54 977.62 243.71C977.62 240.88 978.21 238.38 979.38 236.21C980.55 234.04 982.17 232.33 984.22 231.09C986.27 229.85 988.63 229.23 991.3 229.23C993.03 229.23 994.69 229.54 996.26 230.17C997.83 230.8 999.24 231.66 1000.48 232.77C1001.72 233.88 1002.67 235.16 1003.34 236.63L999.82 238.23C999.31 237.14 998.62 236.19 997.74 235.39C996.86 234.59 995.87 233.96 994.76 233.51C993.65 233.06 992.5 232.83 991.3 232.83C989.43 232.83 987.77 233.3 986.3 234.23C984.83 235.16 983.69 236.44 982.86 238.07C982.03 239.7 981.62 241.58 981.62 243.71C981.62 245.84 982.04 247.74 982.88 249.39C983.72 251.04 984.88 252.33 986.36 253.25C987.84 254.17 989.53 254.63 991.42 254.63C992.65 254.63 993.81 254.38 994.9 253.89C995.99 253.4 996.97 252.72 997.84 251.85C998.71 250.98 999.41 249.99 999.94 248.87L1003.46 250.43C1002.79 251.95 1001.85 253.3 1000.62 254.47C999.39 255.64 997.99 256.56 996.4 257.21C994.81 257.86 993.14 258.19 991.38 258.19Z" fill="#0D7B7C"/>
<path d="M1016.46 258.19C1014.46 258.19 1012.7 257.74 1011.18 256.85C1009.66 255.96 1008.47 254.72 1007.6 253.15C1006.73 251.58 1006.3 249.76 1006.3 247.71C1006.3 245.66 1006.73 243.84 1007.58 242.27C1008.43 240.7 1009.62 239.46 1011.14 238.57C1012.66 237.68 1014.39 237.23 1016.34 237.23C1018.29 237.23 1020.1 237.68 1021.62 238.57C1023.14 239.46 1024.33 240.7 1025.18 242.27C1026.03 243.84 1026.46 245.66 1026.46 247.71C1026.46 249.76 1026.03 251.58 1025.18 253.15C1024.33 254.72 1023.15 255.96 1021.64 256.85C1020.13 257.74 1018.41 258.19 1016.46 258.19ZM1016.46 254.71C1017.66 254.71 1018.72 254.41 1019.64 253.81C1020.56 253.21 1021.29 252.39 1021.82 251.35C1022.35 250.31 1022.62 249.1 1022.62 247.71C1022.62 246.32 1022.35 245.11 1021.82 244.07C1021.29 243.03 1020.55 242.21 1019.6 241.61C1018.65 241.01 1017.58 240.71 1016.38 240.71C1015.18 240.71 1014.07 241.01 1013.14 241.61C1012.21 242.21 1011.47 243.04 1010.94 244.09C1010.41 245.14 1010.14 246.35 1010.14 247.71C1010.14 249.07 1010.41 250.31 1010.94 251.35C1011.47 252.39 1012.22 253.21 1013.18 253.81C1014.14 254.41 1015.23 254.71 1016.46 254.71Z" fill="#0D7B7C"/>
<path d="M1030.62 257.71V237.71H1034.18L1034.34 240.63C1035.01 239.54 1035.87 238.7 1036.92 238.11C1037.97 237.52 1039.18 237.23 1040.54 237.23C1042.11 237.23 1043.48 237.55 1044.64 238.19C1045.8 238.83 1046.69 239.82 1047.32 241.17C1047.95 242.52 1048.26 244.28 1048.26 246.47V257.71H1044.46V247.47C1044.46 245.66 1044.25 244.28 1043.84 243.33C1043.43 242.38 1042.85 241.72 1042.12 241.35C1041.39 240.98 1040.54 240.78 1039.58 240.75C1037.95 240.75 1036.69 241.32 1035.78 242.47C1034.87 243.62 1034.42 245.23 1034.42 247.31V257.71H1030.62Z" fill="#0D7B7C"/>
<path d="M1053.06 257.71V237.71H1056.62L1056.78 240.63C1057.45 239.54 1058.31 238.7 1059.36 238.11C1060.41 237.52 1061.62 237.23 1062.98 237.23C1064.55 237.23 1065.92 237.55 1067.08 238.19C1068.24 238.83 1069.13 239.82 1069.76 241.17C1070.39 242.52 1070.7 244.28 1070.7 246.47V257.71H1066.9V247.47C1066.9 245.66 1066.69 244.28 1066.28 243.33C1065.87 242.38 1065.29 241.72 1064.56 241.35C1063.83 240.98 1062.98 240.78 1062.02 240.75C1060.39 240.75 1059.13 241.32 1058.22 242.47C1057.31 243.62 1056.86 245.23 1056.86 247.31V257.71H1053.06Z" fill="#0D7B7C"/>
<path d="M1084.34 258.19C1082.39 258.19 1080.67 257.74 1079.18 256.85C1077.69 255.96 1076.51 254.72 1075.66 253.15C1074.81 251.58 1074.38 249.76 1074.38 247.71C1074.38 245.66 1074.81 243.84 1075.66 242.27C1076.51 240.7 1077.69 239.46 1079.2 238.57C1080.71 237.68 1082.43 237.23 1084.38 237.23C1086.22 237.23 1087.83 237.69 1089.22 238.61C1090.61 239.53 1091.69 240.84 1092.48 242.53C1093.27 244.22 1093.66 246.22 1093.66 248.51H1078.26C1078.39 250.48 1079.05 252.02 1080.24 253.13C1081.43 254.24 1082.89 254.79 1084.62 254.79C1085.95 254.79 1087.07 254.48 1087.96 253.85C1088.85 253.22 1089.55 252.43 1090.06 251.47L1093.34 252.99C1092.81 254.03 1092.11 254.94 1091.26 255.73C1090.41 256.52 1089.4 257.12 1088.24 257.55C1087.08 257.98 1085.78 258.19 1084.34 258.19ZM1078.5 245.51H1089.58C1089.5 244.44 1089.21 243.54 1088.72 242.81C1088.23 242.08 1087.6 241.51 1086.84 241.11C1086.08 240.71 1085.23 240.51 1084.3 240.51C1083.37 240.51 1082.51 240.7 1081.66 241.09C1080.81 241.48 1080.09 242.04 1079.52 242.79C1078.95 243.54 1078.61 244.44 1078.5 245.51Z" fill="#0D7B7C"/>
<path d="M1106.54 258.19C1104.54 258.19 1102.77 257.74 1101.22 256.85C1099.67 255.96 1098.47 254.72 1097.6 253.15C1096.73 251.58 1096.3 249.76 1096.3 247.71C1096.3 245.66 1096.73 243.84 1097.6 242.27C1098.47 240.7 1099.67 239.46 1101.2 238.57C1102.73 237.68 1104.49 237.23 1106.46 237.23C1108.43 237.23 1110.16 237.68 1111.72 238.59C1113.28 239.5 1114.45 240.79 1115.22 242.47L1111.78 243.91C1111.27 242.92 1110.55 242.15 1109.6 241.59C1108.65 241.03 1107.57 240.75 1106.34 240.75C1105.11 240.75 1104.07 241.04 1103.14 241.63C1102.21 242.22 1101.47 243.04 1100.94 244.09C1100.41 245.14 1100.14 246.35 1100.14 247.71C1100.14 249.07 1100.41 250.27 1100.94 251.31C1101.47 252.35 1102.22 253.17 1103.18 253.77C1104.14 254.37 1105.22 254.67 1106.42 254.67C1107.62 254.67 1108.74 254.36 1109.7 253.73C1110.66 253.1 1111.38 252.26 1111.86 251.19L1115.34 252.59C1114.57 254.35 1113.4 255.72 1111.84 256.71C1110.28 257.7 1108.51 258.19 1106.54 258.19Z" fill="#0D7B7C"/>
<path d="M1126.82 258.19C1124.82 258.19 1123.27 257.68 1122.18 256.65C1121.09 255.62 1120.54 254.15 1120.54 252.23V240.99H1117.14V237.71H1120.54V231.47H1124.34V237.71H1130.02V240.99H1124.34V251.67C1124.34 252.66 1124.59 253.41 1125.08 253.93C1125.57 254.45 1126.29 254.71 1127.22 254.71C1127.49 254.71 1127.78 254.66 1128.1 254.55C1128.42 254.44 1128.81 254.23 1129.26 253.91L1130.7 256.87C1130.01 257.32 1129.35 257.66 1128.72 257.87C1128.09 258.08 1127.46 258.19 1126.82 258.19Z" fill="#0D7B7C"/>
<path d="M1136.18 258.27C1135.51 258.27 1134.93 258.03 1134.44 257.55C1133.95 257.07 1133.7 256.48 1133.7 255.79C1133.7 255.1 1133.95 254.51 1134.44 254.03C1134.93 253.55 1135.51 253.31 1136.18 253.31C1136.85 253.31 1137.47 253.55 1137.96 254.03C1138.45 254.51 1138.7 255.1 1138.7 255.79C1138.7 256.48 1138.45 257.07 1137.96 257.55C1137.47 258.03 1136.87 258.27 1136.18 258.27Z" fill="#0D7B7C"/>
<path d="M141.01 282.02C218.888 282.02 282.02 218.888 282.02 141.01C282.02 63.1323 218.888 0 141.01 0C63.1323 0 0 63.1323 0 141.01C0 218.888 63.1323 282.02 141.01 282.02Z" fill="url(#paint0_linear_182_427)"/>
<path d="M118.36 267.45C94.8899 279.79 42.6899 243.4 20.5399 197.09C1.23995 156.74 1.69994 102.46 31.9799 60.9399C72.7799 4.98994 151.45 -5.48006 202.45 20.8999C209.46 24.5299 253.88 48.4699 261.37 94.6999C263.1 105.39 266.53 126.56 254.51 142.28C231.08 172.9 179.77 142.66 148.11 170.79C115.76 199.52 142.82 254.61 118.36 267.47V267.45Z" fill="white"/>
<path d="M94.48 172.36L80.94 130.69C78.4 122.88 85.33 115.28 93.34 117.09L136.08 126.73C136.33 126.79 136.57 126.85 136.81 126.92C145.87 129.62 145.27 142.77 136.1 145.06C131.64 146.17 125.39 148.71 120.17 154.59C115.23 160.16 113.39 166.28 112.73 170.66C111.3 180.02 98.27 181.86 94.74 173.08C94.65 172.85 94.56 172.61 94.48 172.37V172.36Z" fill="#45C1C4"/>
<defs>
<linearGradient id="paint0_linear_182_427" x1="18.87" y1="70.49" x2="263.15" y2="211.53" gradientUnits="userSpaceOnUse">
<stop stop-color="#F8A391"/>
<stop offset="0.96" stop-color="#48BFC0"/>
<stop offset="1" stop-color="#41C1C3"/>
</linearGradient>
</defs>
</svg>
