<svg width="1244" height="308" viewBox="0 0 1244 308" fill="none" xmlns="http://www.w3.org/2000/svg">
<path d="M414.07 241.195V106.705H365.39V82.705H489.01V106.705H440.33V241.195H414.07Z" fill="#0D7B7C"/>
<path d="M496.72 241.195V127.985H522.08V148.585C526.61 141.495 532.5 136.205 539.74 132.735C546.99 129.265 554.46 127.525 562.16 127.525V151.755C555.22 151.755 548.69 152.695 542.57 154.585C536.46 156.475 531.51 159.535 527.74 163.755C523.97 167.985 522.08 173.565 522.08 180.505V241.185H496.72V241.195Z" fill="#0D7B7C"/>
<path d="M593.17 106.475C589.09 106.475 585.58 105.005 582.64 102.055C579.7 99.1149 578.22 95.6049 578.22 91.5249C578.22 87.4449 579.69 83.9749 582.64 81.1049C585.58 78.2349 589.09 76.8049 593.17 76.8049C597.25 76.8049 600.76 78.2449 603.7 81.1049C606.64 83.9749 608.12 87.4449 608.12 91.5249C608.12 95.6049 606.65 99.1149 603.7 102.055C600.76 104.995 597.25 106.475 593.17 106.475ZM580.49 241.195V127.985H605.62V241.195H580.49Z" fill="#0D7B7C"/>
<path d="M636.64 286.475V127.985H660.41L661.54 145.195C665.46 138.855 670.48 133.955 676.6 130.475C682.71 127.005 689.77 125.265 697.77 125.265C708.03 125.265 716.98 127.725 724.6 132.625C732.22 137.535 738.18 144.395 742.49 153.225C746.79 162.055 748.94 172.505 748.94 184.585C748.94 196.665 746.79 206.925 742.49 215.835C738.19 224.745 732.22 231.645 724.6 236.555C716.98 241.455 708.03 243.915 697.77 243.915C689.92 243.915 682.97 242.175 676.94 238.705C670.9 235.235 665.92 230.475 662 224.445V286.485H636.64V286.475ZM691.43 220.815C697.47 220.815 702.83 219.265 707.51 216.175C712.19 213.085 715.92 208.815 718.72 203.385C721.51 197.955 722.91 191.685 722.91 184.595C722.91 177.505 721.59 171.235 718.95 165.805C716.31 160.375 712.65 156.145 707.97 153.125C703.29 150.105 697.85 148.595 691.67 148.595C685.93 148.595 680.8 150.145 676.27 153.235C671.74 156.325 668.23 160.595 665.74 166.025C663.25 171.455 662 177.645 662 184.595C662 191.545 663.24 197.955 665.74 203.385C668.24 208.815 671.7 213.085 676.16 216.175C680.61 219.275 685.71 220.815 691.44 220.815H691.43Z" fill="#0D7B7C"/>
<path d="M775.43 241.195V82.705H801.24V149.495L864.41 82.705H898.15L830.68 154.025L900.87 241.195H868.49L813.47 172.365L801.24 185.495V241.195H775.43Z" fill="#0D7B7C"/>
<path d="M915.36 241.195V127.985H939.13L940.26 144.065C943.88 138.035 948.6 133.385 954.41 130.145C960.22 126.905 966.9 125.275 974.45 125.275C983.51 125.275 991.24 127.085 997.66 130.705C1004.07 134.325 1008.98 139.955 1012.38 147.575C1015.78 155.195 1017.47 165.125 1017.47 177.345V241.195H992.11V183.235C992.11 174.175 991.09 167.195 989.05 162.295C987.01 157.395 984.14 153.955 980.45 151.995C976.75 150.035 972.41 149.055 967.43 149.055C958.97 148.905 952.41 151.695 947.73 157.435C943.05 163.175 940.71 171.395 940.71 182.115V241.205H915.35L915.36 241.195Z" fill="#0D7B7C"/>
<path d="M1095.13 243.915C1083.66 243.915 1073.54 241.385 1064.79 236.325C1056.03 231.275 1049.17 224.285 1044.19 215.385C1039.21 206.485 1036.72 196.215 1036.72 184.595C1036.72 172.975 1039.17 162.715 1044.08 153.805C1048.98 144.905 1055.81 137.925 1064.57 132.865C1073.32 127.805 1083.28 125.275 1094.46 125.275C1105.64 125.275 1116.04 127.805 1124.8 132.865C1133.55 137.925 1140.38 144.905 1145.29 153.805C1150.19 162.715 1152.65 172.975 1152.65 184.595C1152.65 196.215 1150.19 206.485 1145.29 215.385C1140.38 224.295 1133.59 231.275 1124.91 236.325C1116.23 241.385 1106.31 243.915 1095.14 243.915H1095.13ZM1095.13 220.595C1101.47 220.595 1107.02 219.045 1111.77 215.955C1116.52 212.865 1120.26 208.635 1122.98 203.275C1125.7 197.915 1127.05 191.695 1127.05 184.595C1127.05 177.495 1125.69 171.275 1122.98 165.915C1120.26 160.555 1116.45 156.335 1111.55 153.235C1106.64 150.145 1101.02 148.595 1094.68 148.595C1088.34 148.595 1082.75 150.145 1077.92 153.235C1073.09 156.325 1069.32 160.555 1066.6 165.915C1063.88 171.275 1062.52 177.505 1062.52 184.595C1062.52 191.685 1063.91 197.915 1066.71 203.275C1069.5 208.635 1073.35 212.865 1078.26 215.955C1083.16 219.055 1088.79 220.595 1095.13 220.595Z" fill="#0D7B7C"/>
<path d="M1219.66 243.915C1207.73 243.915 1198.64 240.935 1192.38 234.975C1186.12 229.015 1182.98 220.445 1182.98 209.275V149.725H1164.19V127.985H1182.98V92.6649H1208.11V127.985H1238.68V149.725H1208.11V204.515C1208.11 209.805 1209.35 213.795 1211.85 216.515C1214.34 219.235 1218 220.595 1222.83 220.595C1224.34 220.595 1226 220.295 1227.81 219.685C1229.62 219.085 1231.66 217.955 1233.92 216.285L1243.2 235.535C1239.27 238.255 1235.35 240.325 1231.43 241.765C1227.5 243.195 1223.58 243.915 1219.66 243.915Z" fill="#0D7B7C"/>
<path d="M414.07 241.195V106.705H365.39V82.705H489.01V106.705H440.33V241.195H414.07Z" fill="#DBAD9B"/>
<path d="M496.72 241.195V127.985H522.08V148.585C526.61 141.495 532.5 136.205 539.74 132.735C546.99 129.265 554.46 127.525 562.16 127.525V151.755C555.22 151.755 548.69 152.695 542.57 154.585C536.46 156.475 531.51 159.535 527.74 163.755C523.97 167.985 522.08 173.565 522.08 180.505V241.185H496.72V241.195Z" fill="#DBAD9B"/>
<path d="M593.17 106.475C589.09 106.475 585.58 105.005 582.64 102.055C579.7 99.1149 578.22 95.6049 578.22 91.5249C578.22 87.4449 579.69 83.9749 582.64 81.1049C585.58 78.2349 589.09 76.8049 593.17 76.8049C597.25 76.8049 600.76 78.2449 603.7 81.1049C606.64 83.9749 608.12 87.4449 608.12 91.5249C608.12 95.6049 606.65 99.1149 603.7 102.055C600.76 104.995 597.25 106.475 593.17 106.475ZM580.49 241.195V127.985H605.62V241.195H580.49Z" fill="#DBAD9B"/>
<path d="M636.64 286.475V127.985H660.41L661.54 145.195C665.46 138.855 670.48 133.955 676.6 130.475C682.71 127.005 689.77 125.265 697.77 125.265C708.03 125.265 716.98 127.725 724.6 132.625C732.22 137.535 738.18 144.395 742.49 153.225C746.79 162.055 748.94 172.505 748.94 184.585C748.94 196.665 746.79 206.925 742.49 215.835C738.19 224.745 732.22 231.645 724.6 236.555C716.98 241.455 708.03 243.915 697.77 243.915C689.92 243.915 682.97 242.175 676.94 238.705C670.9 235.235 665.92 230.475 662 224.445V286.485H636.64V286.475ZM691.43 220.815C697.47 220.815 702.83 219.265 707.51 216.175C712.19 213.085 715.92 208.815 718.72 203.385C721.51 197.955 722.91 191.685 722.91 184.595C722.91 177.505 721.59 171.235 718.95 165.805C716.31 160.375 712.65 156.145 707.97 153.125C703.29 150.105 697.85 148.595 691.67 148.595C685.93 148.595 680.8 150.145 676.27 153.235C671.74 156.325 668.23 160.595 665.74 166.025C663.25 171.455 662 177.645 662 184.595C662 191.545 663.24 197.955 665.74 203.385C668.24 208.815 671.7 213.085 676.16 216.175C680.61 219.275 685.71 220.815 691.44 220.815H691.43Z" fill="#DBAD9B"/>
<path d="M775.43 241.195V82.705H801.24V149.495L864.41 82.705H898.15L830.68 154.025L900.87 241.195H868.49L813.47 172.365L801.24 185.495V241.195H775.43Z" fill="#DBAD9B"/>
<path d="M915.36 241.195V127.985H939.13L940.26 144.065C943.88 138.035 948.6 133.385 954.41 130.145C960.22 126.905 966.9 125.275 974.45 125.275C983.51 125.275 991.24 127.085 997.66 130.705C1004.07 134.325 1008.98 139.955 1012.38 147.575C1015.78 155.195 1017.47 165.125 1017.47 177.345V241.195H992.11V183.235C992.11 174.175 991.09 167.195 989.05 162.295C987.01 157.395 984.14 153.955 980.45 151.995C976.75 150.035 972.41 149.055 967.43 149.055C958.97 148.905 952.41 151.695 947.73 157.435C943.05 163.175 940.71 171.395 940.71 182.115V241.205H915.35L915.36 241.195Z" fill="#DBAD9B"/>
<path d="M1095.13 243.915C1083.66 243.915 1073.54 241.385 1064.79 236.325C1056.03 231.275 1049.17 224.285 1044.19 215.385C1039.21 206.485 1036.72 196.215 1036.72 184.595C1036.72 172.975 1039.17 162.715 1044.08 153.805C1048.98 144.905 1055.81 137.925 1064.57 132.865C1073.32 127.805 1083.28 125.275 1094.46 125.275C1105.64 125.275 1116.04 127.805 1124.8 132.865C1133.55 137.925 1140.38 144.905 1145.29 153.805C1150.19 162.715 1152.65 172.975 1152.65 184.595C1152.65 196.215 1150.19 206.485 1145.29 215.385C1140.38 224.295 1133.59 231.275 1124.91 236.325C1116.23 241.385 1106.31 243.915 1095.14 243.915H1095.13ZM1095.13 220.595C1101.47 220.595 1107.02 219.045 1111.77 215.955C1116.52 212.865 1120.26 208.635 1122.98 203.275C1125.7 197.915 1127.05 191.695 1127.05 184.595C1127.05 177.495 1125.69 171.275 1122.98 165.915C1120.26 160.555 1116.45 156.335 1111.55 153.235C1106.64 150.145 1101.02 148.595 1094.68 148.595C1088.34 148.595 1082.75 150.145 1077.92 153.235C1073.09 156.325 1069.32 160.555 1066.6 165.915C1063.88 171.275 1062.52 177.505 1062.52 184.595C1062.52 191.685 1063.91 197.915 1066.71 203.275C1069.5 208.635 1073.35 212.865 1078.26 215.955C1083.16 219.055 1088.79 220.595 1095.13 220.595Z" fill="#DBAD9B"/>
<path d="M1219.66 243.915C1207.73 243.915 1198.64 240.935 1192.38 234.975C1186.12 229.015 1182.98 220.445 1182.98 209.275V149.725H1164.19V127.985H1182.98V92.6649H1208.11V127.985H1238.68V149.725H1208.11V204.515C1208.11 209.805 1209.35 213.795 1211.85 216.515C1214.34 219.235 1218 220.595 1222.83 220.595C1224.34 220.595 1226 220.295 1227.81 219.685C1229.62 219.085 1231.66 217.955 1233.92 216.285L1243.2 235.535C1239.27 238.255 1235.35 240.325 1231.43 241.765C1227.5 243.195 1223.58 243.915 1219.66 243.915Z" fill="#DBAD9B"/>
<path d="M153.845 0C68.8744 0 0 68.8843 0 153.845C0 238.806 68.8744 307.7 153.845 307.7C238.816 307.7 307.69 238.816 307.69 153.845C307.69 68.8744 238.816 0 153.845 0ZM161.59 186.316C126.291 217.673 155.816 277.777 129.128 291.803C103.526 305.261 46.5666 265.563 22.4073 215.035C1.3538 171.006 1.85152 111.788 34.8901 66.4853C79.4061 5.44504 165.233 -5.98259 220.878 22.7955C228.533 26.7574 276.991 52.8777 285.163 103.307C287.055 114.983 290.797 138.067 277.678 155.219C252.115 188.626 196.131 155.637 161.59 186.316Z" fill="url(#paint0_linear_196_427)"/>
<path d="M103.078 188.048L88.3054 142.587C85.5381 134.066 93.0935 125.774 101.833 127.745L148.47 138.266C148.738 138.326 149.007 138.396 149.266 138.475C159.151 141.422 158.504 155.776 148.49 158.265C143.622 159.479 136.803 162.247 131.119 168.657C125.734 174.729 123.723 181.409 122.996 186.187C121.434 196.4 107.219 198.411 103.366 188.825C103.267 188.576 103.167 188.317 103.088 188.048H103.078Z" fill="#DBAD9B"/>
<defs>
<linearGradient id="paint0_linear_196_427" x1="230.782" y1="287.104" x2="76.9076" y2="20.5857" gradientUnits="userSpaceOnUse">
<stop stop-color="#F8A391"/>
<stop offset="0.96" stop-color="#48BFC0"/>
<stop offset="1" stop-color="#41C1C3"/>
</linearGradient>
</defs>
</svg>
